<?xml version="1.0" standalone="no"?>
<!DOCTYPE svg PUBLIC "-//W3C//DTD SVG 20010904//EN"
 "http://www.w3.org/TR/2001/REC-SVG-20010904/DTD/svg10.dtd">
<svg version="1.0" xmlns="http://www.w3.org/2000/svg"
 width="212.000000pt" height="212.000000pt" viewBox="0 0 212.000000 212.000000"
 preserveAspectRatio="xMidYMid meet">
<metadata>
Created by potrace 1.14, written by Peter Selinger 2001-2017
</metadata>
<g transform="translate(0.000000,212.000000) scale(0.100000,-0.100000)"
fill="#000000" stroke="none">
<path d="M1159 2097 c-14 -13 -29 -37 -33 -53 -3 -16 -9 -40 -11 -54 -12 -53
-17 -59 -50 -66 -18 -3 -39 -3 -45 1 -6 4 -24 35 -40 69 -45 99 -104 122 -144
56 -14 -25 -17 -45 -13 -99 5 -78 3 -86 -37 -100 -33 -13 -39 -10 -93 50 -43
47 -90 67 -126 53 -32 -12 -35 -73 -8 -153 l25 -74 -30 -23 c-16 -13 -33 -24
-37 -24 -4 0 -34 17 -65 38 -59 39 -108 46 -138 21 -29 -24 -16 -82 32 -147
48 -64 50 -84 16 -115 -16 -15 -24 -15 -82 -1 -36 8 -79 12 -97 9 -84 -15 -70
-95 27 -161 64 -42 66 -45 49 -92 -12 -34 -20 -37 -103 -41 -96 -4 -133 -46
-93 -106 16 -25 37 -38 92 -57 l70 -24 0 -45 0 -44 -64 -21 c-65 -21 -111 -59
-111 -91 0 -8 14 -28 31 -44 29 -27 37 -29 109 -29 77 0 78 0 90 -30 16 -39
10 -52 -48 -97 -53 -41 -72 -69 -72 -109 0 -19 8 -29 37 -41 35 -14 44 -14
110 2 70 18 74 18 93 0 33 -30 34 -52 2 -93 -39 -49 -49 -71 -53 -108 -8 -76
65 -87 162 -24 64 41 76 42 111 3 16 -18 16 -23 -6 -92 -26 -83 -20 -127 21
-137 23 -6 93 12 93 24 0 4 24 33 53 65 29 31 52 58 51 60 -7 7 -15 113 -20
257 -8 223 18 410 73 540 56 131 122 213 205 254 28 14 53 24 55 22 2 -2 -6
-38 -18 -81 -28 -102 -23 -183 13 -253 l27 -51 -54 -83 c-55 -84 -64 -114 -45
-163 10 -26 56 -75 71 -75 4 0 24 24 45 53 21 28 41 54 44 57 3 3 21 28 39 55
41 58 53 69 63 52 14 -26 -22 -147 -45 -147 -6 0 -8 -3 -4 -6 3 -4 -10 -31
-29 -61 l-35 -55 21 -43 c25 -52 96 -128 113 -121 7 2 53 19 104 36 98 33 98
33 108 110 13 98 57 191 164 345 39 54 74 118 80 141 9 36 21 50 79 92 52 38
68 55 70 76 1 15 11 78 21 140 18 104 19 117 5 171 l-15 58 50 51 c50 52 72
106 52 135 -5 7 -27 17 -49 21 -33 6 -53 2 -108 -22 l-67 -30 -29 30 -30 29
37 72 c38 76 40 116 10 141 -27 23 -94 1 -145 -46 -26 -24 -56 -44 -67 -44
-30 0 -66 38 -59 64 17 69 17 124 2 154 -30 58 -93 34 -152 -57 -31 -48 -44
-61 -65 -61 -43 0 -60 20 -65 80 -8 81 -32 124 -69 127 -20 2 -39 -5 -56 -20z
m-29 -685 c0 -4 -28 -21 -62 -36 -304 -140 -494 -464 -515 -881 -3 -55 -7
-102 -10 -105 -2 -2 -18 11 -34 30 -17 19 -41 47 -54 63 -13 15 -21 27 -18 27
2 0 -5 13 -16 29 -31 43 -81 153 -81 177 0 59 119 292 199 391 27 33 46 65 43
69 -4 4 -2 4 4 1 6 -3 24 7 40 24 96 101 254 178 415 204 46 7 85 13 87 14 1
0 2 -3 2 -7z m554 -134 c-10 -45 -6 -96 10 -126 12 -23 9 -31 -33 -103 -25
-44 -49 -79 -53 -79 -10 0 -48 123 -50 161 -2 68 2 88 28 119 23 27 72 57 97
59 5 1 5 -14 1 -31z m-204 -828 c-14 -26 -68 -60 -96 -60 -16 0 -24 10 -32 39
-18 57 -16 61 17 45 26 -13 34 -13 64 0 19 7 38 20 43 27 14 22 17 -26 4 -51z"/>
</g>
</svg>
